<?xml version="1.0" encoding="UTF-8"?>
<!DOCTYPE svg PUBLIC "-//W3C//DTD SVG 1.1//EN" "http://www.w3.org/Graphics/SVG/1.1/DTD/svg11.dtd">
<svg xmlns="http://www.w3.org/2000/svg" version="1.1" width="430px" height="483px" style="shape-rendering:geometricPrecision; text-rendering:geometricPrecision; image-rendering:optimizeQuality; fill-rule:evenodd; clip-rule:evenodd" xmlns:xlink="http://www.w3.org/1999/xlink">
<g><path style="opacity:0.971" fill="#482f90" d="M 243.5,19.5 C 243.631,20.3764 243.298,21.0431 242.5,21.5C 224.633,20.5255 206.967,20.1922 189.5,20.5C 196.775,15.5221 204.441,11.0221 212.5,7C 215.5,6.33333 218.5,6.33333 221.5,7C 228.979,10.9945 236.312,15.1611 243.5,19.5 Z"/></g>
<g><path style="opacity:0.982" fill="#4e2d8e" d="M 243.5,19.5 C 249.67,23.4192 256.003,27.0859 262.5,30.5C 261.726,31.1471 260.726,31.4805 259.5,31.5C 229.834,28.8704 200.167,28.8704 170.5,31.5C 176.334,27.0791 182.668,23.4124 189.5,20.5C 206.967,20.1922 224.633,20.5255 242.5,21.5C 243.298,21.0431 243.631,20.3764 243.5,19.5 Z"/></g>
<g><path style="opacity:0.989" fill="#542c8c" d="M 262.5,30.5 C 269.704,34.5969 276.704,38.9302 283.5,43.5C 239.997,36.8808 196.497,36.8808 153,43.5C 151.93,43.472 151.097,43.1386 150.5,42.5C 157.184,38.8051 163.85,35.1384 170.5,31.5C 200.167,28.8704 229.834,28.8704 259.5,31.5C 260.726,31.4805 261.726,31.1471 262.5,30.5 Z"/></g>
<g><path style="opacity:0.998" fill="#592b8b" d="M 283.5,43.5 C 286.811,44.8114 289.145,47.1447 290.5,50.5C 289.735,50.9234 288.902,51.2568 288,51.5C 240.333,43.5 192.667,43.5 145,51.5C 144.235,51.4301 143.735,51.0967 143.5,50.5C 144.369,46.6261 146.703,43.9594 150.5,42.5C 151.097,43.1386 151.93,43.472 153,43.5C 196.497,36.8808 239.997,36.8808 283.5,43.5 Z"/></g>
<g><path style="opacity:0.993" fill="#5c2a8a" d="M 290.5,50.5 C 290.5,51.8333 290.5,53.1667 290.5,54.5C 241.167,46.5 191.833,46.5 142.5,54.5C 142.232,52.901 142.566,51.5676 143.5,50.5C 143.735,51.0967 144.235,51.4301 145,51.5C 192.667,43.5 240.333,43.5 288,51.5C 288.902,51.2568 289.735,50.9234 290.5,50.5 Z"/></g>
<g><path style="opacity:1" fill="#5f2b8a" d="M 290.5,54.5 C 290.598,56.5529 289.931,58.2196 288.5,59.5C 254.002,54.1205 219.335,52.6205 184.5,55C 171.12,56.1726 157.787,57.6726 144.5,59.5C 143.463,58.0697 142.796,56.403 142.5,54.5C 191.833,46.5 241.167,46.5 290.5,54.5 Z"/></g>
<g><path style="opacity:0.991" fill="#622a88" d="M 288.5,59.5 C 287.415,61.5869 285.749,62.9202 283.5,63.5C 240.206,55.8994 196.706,55.566 153,62.5C 151.624,62.6842 150.791,63.3509 150.5,64.5C 147.891,63.5569 145.891,61.8903 144.5,59.5C 157.787,57.6726 171.12,56.1726 184.5,55C 219.335,52.6205 254.002,54.1205 288.5,59.5 Z"/></g>
<g><path style="opacity:0.993" fill="#662987" d="M 283.5,63.5 C 279.167,66.669 274.5,69.3357 269.5,71.5C 234.167,67.5 198.833,67.5 163.5,71.5C 159.034,69.4335 154.701,67.1002 150.5,64.5C 150.791,63.3509 151.624,62.6842 153,62.5C 196.706,55.566 240.206,55.8994 283.5,63.5 Z"/></g>
<g><path style="opacity:0.989" fill="#6d2886" d="M 269.5,71.5 C 264.784,74.8627 259.784,77.8627 254.5,80.5C 241.924,79.0216 229.258,78.0216 216.5,77.5C 203.976,77.9948 191.643,78.9948 179.5,80.5C 173.835,78.0031 168.502,75.0031 163.5,71.5C 198.833,67.5 234.167,67.5 269.5,71.5 Z"/></g>
<g><path style="opacity:0.992" fill="#732784" d="M 254.5,80.5 C 250.535,82.8184 246.535,85.1517 242.5,87.5C 225.5,87.5 208.5,87.5 191.5,87.5C 187.164,85.668 183.164,83.3346 179.5,80.5C 191.643,78.9948 203.976,77.9948 216.5,77.5C 229.258,78.0216 241.924,79.0216 254.5,80.5 Z"/></g>
<g><path style="opacity:0.912" fill="#682887" d="M 95.5,87.5 C 67.9271,95.5785 41.5937,106.578 16.5,120.5C 37.1062,107.523 58.1062,95.0225 79.5,83C 86.2131,79.9726 91.5465,81.4726 95.5,87.5 Z"/></g>
<g><path style="opacity:0.884" fill="#6e2785" d="M 139.5,85.5 C 133.171,86.8325 126.838,88.1659 120.5,89.5C 125.234,80.5855 131.567,79.2522 139.5,85.5 Z"/></g>
<g><path style="opacity:0.912" fill="#682987" d="M 411.5,117.5 C 387.667,105.743 363.333,95.41 338.5,86.5C 342.476,81.4974 347.476,80.3307 353.5,83C 373.062,94.2743 392.395,105.774 411.5,117.5 Z"/></g>
<g><path style="opacity:0.983" fill="#732784" d="M 139.5,85.5 C 143.836,87.332 147.836,89.6654 151.5,92.5C 140.95,94.8122 130.283,97.1456 119.5,99.5C 119.46,96.1194 119.793,92.7861 120.5,89.5C 126.838,88.1659 133.171,86.8325 139.5,85.5 Z"/></g>
<g><path style="opacity:0.983" fill="#722784" d="M 313.5,97.5 C 312.849,98.0906 312.182,98.7573 311.5,99.5C 301.529,96.9068 291.529,94.5735 281.5,92.5C 287.766,87.5997 294.766,83.9331 302.5,81.5C 311.077,83.2896 314.743,88.6229 313.5,97.5 Z"/></g>
<g><path style="opacity:0.99" fill="#6d2885" d="M 95.5,87.5 C 96.4227,91.0641 96.756,94.7307 96.5,98.5C 94.9317,97.5269 93.265,97.3603 91.5,98C 63.9642,107.353 37.7976,119.52 13,134.5C 12.7216,133.584 12.2216,132.918 11.5,132.5C 11.0889,128.537 11.9222,124.87 14,121.5C 14.6708,120.748 15.5041,120.414 16.5,120.5C 41.5937,106.578 67.9271,95.5785 95.5,87.5 Z"/></g>
<g><path style="opacity:0.985" fill="#782682" d="M 191.5,87.5 C 208.5,87.5 225.5,87.5 242.5,87.5C 237.498,91.0031 232.165,94.0031 226.5,96.5C 219.833,96.5 213.167,96.5 206.5,96.5C 201.299,93.737 196.299,90.737 191.5,87.5 Z"/></g>
<g><path style="opacity:0.991" fill="#6d2886" d="M 338.5,86.5 C 363.333,95.41 387.667,105.743 411.5,117.5C 420.805,120.434 424.138,126.767 421.5,136.5C 420.238,134.007 418.238,132.174 415.5,131C 390.345,116.755 364.012,105.255 336.5,96.5C 336.159,92.8405 336.825,89.5072 338.5,86.5 Z"/></g>
<g><path style="opacity:0.99" fill="#792682" d="M 151.5,92.5 C 156.5,94.6643 161.167,97.331 165.5,100.5C 150.007,102.732 134.674,105.732 119.5,109.5C 119.5,106.167 119.5,102.833 119.5,99.5C 130.283,97.1456 140.95,94.8122 151.5,92.5 Z"/></g>
<g><path style="opacity:0.976" fill="#792682" d="M 281.5,92.5 C 291.529,94.5735 301.529,96.9068 311.5,99.5C 312.182,98.7573 312.849,98.0906 313.5,97.5C 313.5,101.5 313.5,105.5 313.5,109.5C 297.787,105.288 282.12,102.288 266.5,100.5C 271.368,97.5662 276.368,94.8995 281.5,92.5 Z"/></g>
<g><path style="opacity:0.997" fill="#732784" d="M 336.5,96.5 C 364.012,105.255 390.345,116.755 415.5,131C 418.238,132.174 420.238,134.007 421.5,136.5C 421.5,139.5 421.5,142.5 421.5,145.5C 395.154,129.412 367.321,116.412 338,106.5C 337.722,107.416 337.222,108.082 336.5,108.5C 336.5,104.5 336.5,100.5 336.5,96.5 Z"/></g>
<g><path style="opacity:0.988" fill="#732784" d="M 96.5,98.5 C 96.5,101.167 96.5,103.833 96.5,106.5C 66.7298,116.555 38.3965,129.555 11.5,145.5C 11.5,141.167 11.5,136.833 11.5,132.5C 12.2216,132.918 12.7216,133.584 13,134.5C 37.7976,119.52 63.9642,107.353 91.5,98C 93.265,97.3603 94.9317,97.5269 96.5,98.5 Z"/></g>
<g><path style="opacity:0.848" fill="#7d2481" d="M 206.5,96.5 C 213.167,96.5 219.833,96.5 226.5,96.5C 219.903,101.773 213.236,101.773 206.5,96.5 Z"/></g>
<g><path style="opacity:0.99" fill="#802480" d="M 165.5,100.5 C 171.83,103.33 177.83,106.663 183.5,110.5C 162.907,111.264 142.573,114.431 122.5,120C 121.309,120.698 120.309,121.531 119.5,122.5C 119.5,118.167 119.5,113.833 119.5,109.5C 134.674,105.732 150.007,102.732 165.5,100.5 Z"/></g>
<g><path style="opacity:0.979" fill="#802480" d="M 266.5,100.5 C 282.12,102.288 297.787,105.288 313.5,109.5C 313.5,113.833 313.5,118.167 313.5,122.5C 312.691,121.531 311.691,120.698 310.5,120C 291.408,115.096 272.075,111.596 252.5,109.5C 257.13,106.514 261.797,103.514 266.5,100.5 Z"/></g>
<g><path style="opacity:0.997" fill="#792682" d="M 96.5,106.5 C 96.5,109.833 96.5,113.167 96.5,116.5C 67.2804,126.444 39.6137,139.61 13.5,156C 12.9011,157.622 12.2344,159.122 11.5,160.5C 11.5,155.5 11.5,150.5 11.5,145.5C 38.3965,129.555 66.7298,116.555 96.5,106.5 Z"/></g>
<g><path style="opacity:0.991" fill="#792682" d="M 421.5,145.5 C 421.5,149.833 421.5,154.167 421.5,158.5C 420.636,157.312 419.636,156.145 418.5,155C 392.595,139.215 365.262,126.382 336.5,116.5C 336.5,113.833 336.5,111.167 336.5,108.5C 337.222,108.082 337.722,107.416 338,106.5C 367.321,116.412 395.154,129.412 421.5,145.5 Z"/></g>
<g><path style="opacity:0.994" fill="#86237e" d="M 183.5,110.5 C 187.167,112.5 190.833,114.5 194.5,116.5C 192.952,117.794 190.952,118.461 188.5,118.5C 165.738,120.186 143.404,124.186 121.5,130.5C 120.817,130.137 120.15,129.804 119.5,129.5C 119.5,127.167 119.5,124.833 119.5,122.5C 120.309,121.531 121.309,120.698 122.5,120C 142.573,114.431 162.907,111.264 183.5,110.5 Z"/></g>
<g><path style="opacity:0.987" fill="#86237e" d="M 252.5,109.5 C 272.075,111.596 291.408,115.096 310.5,120C 311.691,120.698 312.691,121.531 313.5,122.5C 313.5,125.167 313.5,127.833 313.5,130.5C 288.445,123.769 263.112,119.436 237.5,117.5C 242.368,114.566 247.368,111.9 252.5,109.5 Z"/></g>
<g><path style="opacity:0.989" fill="#802480" d="M 96.5,116.5 C 96.5,120.833 96.5,125.167 96.5,129.5C 95.8501,129.196 95.1835,128.863 94.5,128.5C 64.5692,138.962 36.9025,153.295 11.5,171.5C 11.5,167.833 11.5,164.167 11.5,160.5C 12.2344,159.122 12.9011,157.622 13.5,156C 39.6137,139.61 67.2804,126.444 96.5,116.5 Z"/></g>
<g><path style="opacity:0.991" fill="#802480" d="M 336.5,116.5 C 365.262,126.382 392.595,139.215 418.5,155C 419.636,156.145 420.636,157.312 421.5,158.5C 421.5,162.833 421.5,167.167 421.5,171.5C 412.908,164.444 403.575,158.278 393.5,153C 375.165,143.163 356.165,134.996 336.5,128.5C 336.5,124.5 336.5,120.5 336.5,116.5 Z"/></g>
<g><path style="opacity:0.994" fill="#8c227d" d="M 194.5,116.5 C 199.966,118.297 203.3,121.963 204.5,127.5C 175.86,127.94 147.86,132.274 120.5,140.5C 120.672,139.508 120.338,138.842 119.5,138.5C 119.5,135.5 119.5,132.5 119.5,129.5C 120.15,129.804 120.817,130.137 121.5,130.5C 143.404,124.186 165.738,120.186 188.5,118.5C 190.952,118.461 192.952,117.794 194.5,116.5 Z"/></g>
<g><path style="opacity:0.989" fill="#8c227d" d="M 237.5,117.5 C 263.112,119.436 288.445,123.769 313.5,130.5C 313.5,133.833 313.5,137.167 313.5,140.5C 285.761,132.377 257.427,128.044 228.5,127.5C 229.4,122.267 232.4,118.934 237.5,117.5 Z"/></g>
<g><path style="opacity:1" fill="#92217b" d="M 204.5,127.5 C 205.43,131.4 205.763,135.4 205.5,139.5C 204.596,138.791 204.263,137.791 204.5,136.5C 175.997,137.667 147.997,142 120.5,149.5C 120.5,146.5 120.5,143.5 120.5,140.5C 147.86,132.274 175.86,127.94 204.5,127.5 Z"/></g>
<g><path style="opacity:0.989" fill="#92217b" d="M 228.5,127.5 C 257.427,128.044 285.761,132.377 313.5,140.5C 313.5,143.833 313.5,147.167 313.5,150.5C 285.639,141.35 257.305,137.35 228.5,138.5C 228.5,134.833 228.5,131.167 228.5,127.5 Z"/></g>
<g><path style="opacity:0.993" fill="#86237e" d="M 96.5,129.5 C 96.5,132.5 96.5,135.5 96.5,138.5C 66.0563,148.888 37.723,163.221 11.5,181.5C 11.5,178.167 11.5,174.833 11.5,171.5C 36.9025,153.295 64.5692,138.962 94.5,128.5C 95.1835,128.863 95.8501,129.196 96.5,129.5 Z"/></g>
<g><path style="opacity:0.99" fill="#86237e" d="M 336.5,128.5 C 356.165,134.996 375.165,143.163 393.5,153C 403.575,158.278 412.908,164.444 421.5,171.5C 421.5,174.833 421.5,178.167 421.5,181.5C 395.277,163.221 366.944,148.888 336.5,138.5C 336.5,135.167 336.5,131.833 336.5,128.5 Z"/></g>
<g><path style="opacity:1" fill="#992079" d="M 205.5,139.5 C 205.5,144.5 205.5,149.5 205.5,154.5C 205.167,154.5 204.833,154.5 204.5,154.5C 204.5,152.833 204.5,151.167 204.5,149.5C 203.306,148.223 201.64,147.556 199.5,147.5C 172.91,148.952 146.91,153.618 121.5,161.5C 120.702,161.957 120.369,162.624 120.5,163.5C 120.167,163.5 119.833,163.5 119.5,163.5C 119.5,155.167 119.5,146.833 119.5,138.5C 120.338,138.842 120.672,139.508 120.5,140.5C 120.5,143.5 120.5,146.5 120.5,149.5C 147.997,142 175.997,137.667 204.5,136.5C 204.263,137.791 204.596,138.791 205.5,139.5 Z"/></g>
<g><path style="opacity:0.997" fill="#982079" d="M 313.5,150.5 C 313.5,154.167 313.5,157.833 313.5,161.5C 313.167,161.5 312.833,161.5 312.5,161.5C 286.897,153.813 260.731,149.147 234,147.5C 232.014,147.569 230.514,148.235 229.5,149.5C 229.167,149.5 228.833,149.5 228.5,149.5C 228.5,145.833 228.5,142.167 228.5,138.5C 257.305,137.35 285.639,141.35 313.5,150.5 Z"/></g>
<g><path style="opacity:0.997" fill="#8c227d" d="M 96.5,138.5 C 96.5,141.5 96.5,144.5 96.5,147.5C 67.2915,158.603 39.9581,173.103 14.5,191C 13.3636,192.145 12.3636,193.312 11.5,194.5C 11.5,190.167 11.5,185.833 11.5,181.5C 37.723,163.221 66.0563,148.888 96.5,138.5 Z"/></g>
<g><path style="opacity:0.993" fill="#8c227d" d="M 336.5,138.5 C 366.944,148.888 395.277,163.221 421.5,181.5C 421.5,185.833 421.5,190.167 421.5,194.5C 419.663,191.895 417.33,189.728 414.5,188C 390.077,171.62 364.077,158.12 336.5,147.5C 336.5,144.5 336.5,141.5 336.5,138.5 Z"/></g>
<g><path style="opacity:1" fill="#9d1f78" d="M 204.5,149.5 C 175.783,150.064 147.783,154.731 120.5,163.5C 120.369,162.624 120.702,161.957 121.5,161.5C 146.91,153.618 172.91,148.952 199.5,147.5C 201.64,147.556 203.306,148.223 204.5,149.5 Z"/></g>
<g><path style="opacity:1" fill="#9d1f78" d="M 312.5,161.5 C 312.631,162.239 312.464,162.906 312,163.5C 285.218,154.786 257.718,150.12 229.5,149.5C 230.514,148.235 232.014,147.569 234,147.5C 260.731,149.147 286.897,153.813 312.5,161.5 Z"/></g>
<g><path style="opacity:0.988" fill="#92217b" d="M 336.5,147.5 C 364.077,158.12 390.077,171.62 414.5,188C 417.33,189.728 419.663,191.895 421.5,194.5C 421.815,198.371 421.482,202.038 420.5,205.5C 417.35,201.896 413.684,198.73 409.5,196C 387.198,180.764 363.364,168.264 338,158.5C 337.617,159.056 337.117,159.389 336.5,159.5C 336.5,155.5 336.5,151.5 336.5,147.5 Z"/></g>
<g><path style="opacity:0.991" fill="#92217b" d="M 96.5,147.5 C 96.5,151.833 96.5,156.167 96.5,160.5C 95.7784,160.082 95.2784,159.416 95,158.5C 64.8181,169.992 37.3181,185.658 12.5,205.5C 11.5184,202.038 11.185,198.371 11.5,194.5C 12.3636,193.312 13.3636,192.145 14.5,191C 39.9581,173.103 67.2915,158.603 96.5,147.5 Z"/></g>
<g><path style="opacity:0.999" fill="#a01f77" d="M 204.5,149.5 C 204.5,151.167 204.5,152.833 204.5,154.5C 204.5,155.167 204.5,155.833 204.5,156.5C 176.348,158.248 148.682,162.914 121.5,170.5C 120.593,168.343 119.927,166.01 119.5,163.5C 119.833,163.5 120.167,163.5 120.5,163.5C 147.783,154.731 175.783,150.064 204.5,149.5 Z"/></g>
<g><path style="opacity:0.99" fill="#9f1e77" d="M 228.5,149.5 C 228.833,149.5 229.167,149.5 229.5,149.5C 257.718,150.12 285.218,154.786 312,163.5C 312.464,162.906 312.631,162.239 312.5,161.5C 312.833,161.5 313.167,161.5 313.5,161.5C 313.841,165.16 313.175,168.493 311.5,171.5C 284.954,163.103 257.787,158.103 230,156.5C 229.722,157.416 229.222,158.082 228.5,158.5C 228.5,155.5 228.5,152.5 228.5,149.5 Z"/></g>
<g><path style="opacity:1" fill="#a31e76" d="M 204.5,156.5 C 204.5,157.5 204.5,158.5 204.5,159.5C 180.115,160.842 156.115,164.675 132.5,171C 129.428,171.578 126.761,172.745 124.5,174.5C 123.026,173.564 122.026,172.23 121.5,170.5C 148.682,162.914 176.348,158.248 204.5,156.5 Z"/></g>
<g><path style="opacity:0.995" fill="#a31e77" d="M 311.5,171.5 C 311.167,172.5 310.5,173.167 309.5,173.5C 283.049,165.703 256.049,161.036 228.5,159.5C 228.5,159.167 228.5,158.833 228.5,158.5C 229.222,158.082 229.722,157.416 230,156.5C 257.787,158.103 284.954,163.103 311.5,171.5 Z"/></g>
<g><path style="opacity:0.996" fill="#982079" d="M 96.5,160.5 C 96.6646,163.518 96.498,166.518 96,169.5C 95.7216,170.416 95.2216,171.082 94.5,171.5C 68.0055,181.424 43.3389,195.091 20.5,212.5C 16.5713,211.569 13.9047,209.236 12.5,205.5C 37.3181,185.658 64.8181,169.992 95,158.5C 95.2784,159.416 95.7784,160.082 96.5,160.5 Z"/></g>
<g><path style="opacity:0.994" fill="#982079" d="M 420.5,205.5 C 419.833,209.5 417.5,211.833 413.5,212.5C 391.035,196.175 366.869,182.508 341,171.5C 340.617,172.056 340.117,172.389 339.5,172.5C 336.839,168.69 335.839,164.356 336.5,159.5C 337.117,159.389 337.617,159.056 338,158.5C 363.364,168.264 387.198,180.764 409.5,196C 413.684,198.73 417.35,201.896 420.5,205.5 Z"/></g>
<g><path style="opacity:0.995" fill="#a61d75" d="M 204.5,154.5 C 204.833,154.5 205.167,154.5 205.5,154.5C 205.5,157.833 205.5,161.167 205.5,164.5C 204.662,164.842 204.328,165.508 204.5,166.5C 182.162,167.286 160.162,170.453 138.5,176C 135.848,176.353 133.848,177.52 132.5,179.5C 129.833,177.833 127.167,176.167 124.5,174.5C 126.761,172.745 129.428,171.578 132.5,171C 156.115,164.675 180.115,160.842 204.5,159.5C 204.5,158.5 204.5,157.5 204.5,156.5C 204.5,155.833 204.5,155.167 204.5,154.5 Z"/></g>
<g><path style="opacity:0.987" fill="#a61d75" d="M 228.5,159.5 C 256.049,161.036 283.049,165.703 309.5,173.5C 307.178,175.664 304.511,177.331 301.5,178.5C 277.794,170.828 253.461,167.161 228.5,167.5C 228.5,164.833 228.5,162.167 228.5,159.5 Z"/></g>
<g><path style="opacity:0.994" fill="#ab1c74" d="M 204.5,166.5 C 204.5,169.5 204.5,172.5 204.5,175.5C 184.606,176.699 164.94,179.532 145.5,184C 144.584,184.278 143.918,184.778 143.5,185.5C 139.833,183.5 136.167,181.5 132.5,179.5C 133.848,177.52 135.848,176.353 138.5,176C 160.162,170.453 182.162,167.286 204.5,166.5 Z"/></g>
<g><path style="opacity:0.988" fill="#ab1c74" d="M 301.5,178.5 C 297.836,181.335 293.836,183.668 289.5,185.5C 282.814,182.857 275.814,181.024 268.5,180C 255.218,177.95 241.884,176.45 228.5,175.5C 228.5,172.833 228.5,170.167 228.5,167.5C 253.461,167.161 277.794,170.828 301.5,178.5 Z"/></g>
<g><path style="opacity:0.897" fill="#9d1f78" d="M 94.5,171.5 C 93.7101,172.794 92.7101,173.961 91.5,175C 69.8333,187.333 48.1667,199.667 26.5,212C 24.5273,212.495 22.5273,212.662 20.5,212.5C 43.3389,195.091 68.0055,181.424 94.5,171.5 Z"/></g>
<g><path style="opacity:0.989" fill="#b11b72" d="M 205.5,164.5 C 205.5,172.833 205.5,181.167 205.5,189.5C 205.167,189.5 204.833,189.5 204.5,189.5C 204.5,188.5 204.5,187.5 204.5,186.5C 193.803,187.241 183.136,188.408 172.5,190C 167.219,190.538 162.219,191.705 157.5,193.5C 152.833,190.833 148.167,188.167 143.5,185.5C 143.918,184.778 144.584,184.278 145.5,184C 164.94,179.532 184.606,176.699 204.5,175.5C 204.5,172.5 204.5,169.5 204.5,166.5C 204.328,165.508 204.662,164.842 205.5,164.5 Z"/></g>
<g><path style="opacity:0.986" fill="#b11b72" d="M 228.5,175.5 C 241.884,176.45 255.218,177.95 268.5,180C 275.814,181.024 282.814,182.857 289.5,185.5C 285.167,188.669 280.5,191.336 275.5,193.5C 260.201,189.626 244.535,187.293 228.5,186.5C 228.5,182.833 228.5,179.167 228.5,175.5 Z"/></g>
<g><path style="opacity:0.903" fill="#9d1f78" d="M 413.5,212.5 C 408.713,213.03 404.38,211.863 400.5,209C 379.772,197.311 359.439,185.144 339.5,172.5C 340.117,172.389 340.617,172.056 341,171.5C 366.869,182.508 391.035,196.175 413.5,212.5 Z"/></g>
<g><path style="opacity:0.997" fill="#b71a71" d="M 204.5,189.5 C 204.5,190.833 204.5,192.167 204.5,193.5C 191.168,193.677 178.168,195.343 165.5,198.5C 162.797,196.819 160.131,195.153 157.5,193.5C 162.219,191.705 167.219,190.538 172.5,190C 183.136,188.408 193.803,187.241 204.5,186.5C 204.5,187.5 204.5,188.5 204.5,189.5 Z"/></g>
<g><path style="opacity:0.985" fill="#b71a71" d="M 228.5,186.5 C 244.535,187.293 260.201,189.626 275.5,193.5C 272.869,195.153 270.203,196.819 267.5,198.5C 254.833,195.329 241.833,193.663 228.5,193.5C 228.5,191.167 228.5,188.833 228.5,186.5 Z"/></g>
<g><path style="opacity:0.945" fill="#be196f" d="M 204.5,189.5 C 204.833,189.5 205.167,189.5 205.5,189.5C 205.726,194.562 205.392,199.562 204.5,204.5C 197.305,206.158 189.972,207.158 182.5,207.5C 178.034,205.434 173.701,203.1 169.5,200.5C 180.901,198.058 192.567,196.725 204.5,196.5C 204.5,195.5 204.5,194.5 204.5,193.5C 204.5,192.167 204.5,190.833 204.5,189.5 Z"/></g>
<g><path style="opacity:0.983" fill="#b11b72" d="M 124.5,201.5 C 92.6585,212.248 63.6585,227.915 37.5,248.5C 35.1058,246.668 34.1058,244.168 34.5,241C 34.2011,237.265 35.5345,234.265 38.5,232C 59.8333,219.667 81.1667,207.333 102.5,195C 105.366,193.543 108.366,193.21 111.5,194C 116.002,196.364 120.335,198.864 124.5,201.5 Z"/></g>
<g><path style="opacity:0.993" fill="#ba196f" d="M 204.5,193.5 C 204.5,194.5 204.5,195.5 204.5,196.5C 192.567,196.725 180.901,198.058 169.5,200.5C 168.167,199.833 166.833,199.167 165.5,198.5C 178.168,195.343 191.168,193.677 204.5,193.5 Z"/></g>
<g><path style="opacity:0.977" fill="#ba1a70" d="M 228.5,193.5 C 241.833,193.663 254.833,195.329 267.5,198.5C 266.395,199.6 265.062,200.267 263.5,200.5C 252.099,198.058 240.433,196.725 228.5,196.5C 228.5,195.5 228.5,194.5 228.5,193.5 Z"/></g>
<g><path style="opacity:0.98" fill="#b11b72" d="M 394.5,249.5 C 394.489,247.983 393.823,246.816 392.5,246C 367.127,226.979 339.46,212.145 309.5,201.5C 313.268,198.775 317.268,196.275 321.5,194C 325.452,193.088 329.119,193.755 332.5,196C 353.167,208 373.833,220 394.5,232C 401.153,238.014 401.153,243.847 394.5,249.5 Z"/></g>
<g><path style="opacity:0.985" fill="#be196f" d="M 228.5,196.5 C 240.433,196.725 252.099,198.058 263.5,200.5C 260.322,203.258 256.655,205.258 252.5,206.5C 244.864,207.005 237.197,206.672 229.5,205.5C 228.523,202.713 228.19,199.713 228.5,196.5 Z"/></g>
<g><path style="opacity:0.996" fill="#b71a71" d="M 124.5,201.5 C 126.882,202.351 128.882,203.684 130.5,205.5C 99.0097,216.742 70.0097,232.409 43.5,252.5C 41.1184,251.649 39.1184,250.316 37.5,248.5C 63.6585,227.915 92.6585,212.248 124.5,201.5 Z"/></g>
<g><path style="opacity:0.999" fill="#b71a71" d="M 309.5,201.5 C 339.46,212.145 367.127,226.979 392.5,246C 393.823,246.816 394.489,247.983 394.5,249.5C 393.101,250.89 391.434,251.89 389.5,252.5C 376.42,242.114 362.42,232.947 347.5,225C 332.644,217.899 317.644,211.399 302.5,205.5C 304.336,203.412 306.669,202.079 309.5,201.5 Z"/></g>
<g><path style="opacity:0.992" fill="#ba1a70" d="M 130.5,205.5 C 132.819,205.992 134.819,206.992 136.5,208.5C 104.316,217.426 74.9826,231.926 48.5,252C 47.7476,252.671 47.4142,253.504 47.5,254.5C 45.847,254.34 44.5137,253.674 43.5,252.5C 70.0097,232.409 99.0097,216.742 130.5,205.5 Z"/></g>
<g><path style="opacity:0.978" fill="#c2186d" d="M 204.5,204.5 C 202.042,211.73 197.042,214.23 189.5,212C 186.761,210.974 184.428,209.474 182.5,207.5C 189.972,207.158 197.305,206.158 204.5,204.5 Z"/></g>
<g><path style="opacity:0.985" fill="#c2186d" d="M 229.5,205.5 C 237.197,206.672 244.864,207.005 252.5,206.5C 246.31,212.797 239.31,213.964 231.5,210C 230.418,208.67 229.751,207.17 229.5,205.5 Z"/></g>
<g><path style="opacity:0.993" fill="#ba1a70" d="M 302.5,205.5 C 317.644,211.399 332.644,217.899 347.5,225C 362.42,232.947 376.42,242.114 389.5,252.5C 388.486,253.674 387.153,254.34 385.5,254.5C 384.294,251.702 382.294,249.535 379.5,248C 354.36,230.763 327.36,217.263 298.5,207.5C 299.514,206.326 300.847,205.66 302.5,205.5 Z"/></g>
<g><path style="opacity:0.996" fill="#be196f" d="M 298.5,207.5 C 327.36,217.263 354.36,230.763 379.5,248C 382.294,249.535 384.294,251.702 385.5,254.5C 383.381,256.4 381.047,258.066 378.5,259.5C 351.218,238.861 320.884,224.027 287.5,215C 288.056,214.617 288.389,214.117 288.5,213.5C 291.466,211.012 294.799,209.012 298.5,207.5 Z"/></g>
<g><path style="opacity:0.995" fill="#be196f" d="M 136.5,208.5 C 139.661,209.913 142.661,211.58 145.5,213.5C 145.38,214.586 144.713,215.253 143.5,215.5C 111.217,224.81 81.5508,239.144 54.5,258.5C 51.6689,257.921 49.3356,256.588 47.5,254.5C 47.4142,253.504 47.7476,252.671 48.5,252C 74.9826,231.926 104.316,217.426 136.5,208.5 Z"/></g>
<g><path style="opacity:0.996" fill="#c2186d" d="M 145.5,213.5 C 146.833,214.167 148.167,214.833 149.5,215.5C 149.586,216.496 149.252,217.329 148.5,218C 115.616,226.945 85.6161,241.445 58.5,261.5C 57.1283,260.488 55.795,259.488 54.5,258.5C 81.5508,239.144 111.217,224.81 143.5,215.5C 144.713,215.253 145.38,214.586 145.5,213.5 Z"/></g>
<g><path style="opacity:1" fill="#c2186d" d="M 288.5,213.5 C 288.389,214.117 288.056,214.617 287.5,215C 320.884,224.027 351.218,238.861 378.5,259.5C 377.609,260.11 376.609,260.443 375.5,260.5C 354.179,246.337 331.512,234.504 307.5,225C 299.954,222.262 292.287,219.929 284.5,218C 283.944,217.617 283.611,217.117 283.5,216.5C 284.659,214.75 286.326,213.75 288.5,213.5 Z"/></g>
<g><path style="opacity:0.993" fill="#c5176d" d="M 149.5,215.5 C 152.709,217.265 155.709,219.265 158.5,221.5C 124.028,229.409 92.6949,243.743 64.5,264.5C 62.5,263.5 60.5,262.5 58.5,261.5C 85.6161,241.445 115.616,226.945 148.5,218C 149.252,217.329 149.586,216.496 149.5,215.5 Z"/></g>
<g><path style="opacity:0.992" fill="#c5186d" d="M 283.5,216.5 C 283.611,217.117 283.944,217.617 284.5,218C 292.287,219.929 299.954,222.262 307.5,225C 331.512,234.504 354.179,246.337 375.5,260.5C 373.664,262.588 371.331,263.921 368.5,264.5C 340.344,243.651 309.011,229.317 274.5,221.5C 277.24,219.44 280.24,217.774 283.5,216.5 Z"/></g>
<g><path style="opacity:0.995" fill="#cb176b" d="M 158.5,221.5 C 164.165,223.997 169.498,226.997 174.5,230.5C 146.487,234.227 120.154,243.06 95.5,257C 88.2491,260.78 81.5825,265.28 75.5,270.5C 71.3447,269.258 67.678,267.258 64.5,264.5C 92.6949,243.743 124.028,229.409 158.5,221.5 Z"/></g>
<g><path style="opacity:0.995" fill="#ca176b" d="M 274.5,221.5 C 309.011,229.317 340.344,243.651 368.5,264.5C 365.506,267 362.173,269 358.5,270.5C 329.96,250.489 298.46,237.155 264,230.5C 262.624,230.316 261.791,229.649 261.5,228.5C 265.701,225.9 270.034,223.566 274.5,221.5 Z"/></g>
<g><path style="opacity:0.995" fill="#d11669" d="M 174.5,230.5 C 177.833,231.833 180.167,234.167 181.5,237.5C 146.182,243.274 113.515,255.94 83.5,275.5C 80.4604,274.32 77.7937,272.653 75.5,270.5C 81.5825,265.28 88.2491,260.78 95.5,257C 120.154,243.06 146.487,234.227 174.5,230.5 Z"/></g>
<g><path style="opacity:0.993" fill="#d11669" d="M 261.5,228.5 C 261.791,229.649 262.624,230.316 264,230.5C 298.46,237.155 329.96,250.489 358.5,270.5C 355.76,272.56 352.76,274.226 349.5,275.5C 319.576,255.966 286.909,243.299 251.5,237.5C 253.577,233.124 256.911,230.124 261.5,228.5 Z"/></g>
<g><path style="opacity:0.994" fill="#d71468" d="M 251.5,237.5 C 286.909,243.299 319.576,255.966 349.5,275.5C 347.206,277.653 344.54,279.32 341.5,280.5C 315.609,264.979 287.775,254.313 258,248.5C 256.93,248.528 256.097,248.861 255.5,249.5C 251.404,246.458 250.071,242.458 251.5,237.5 Z"/></g>
<g><path style="opacity:0.991" fill="#d71468" d="M 181.5,237.5 C 183.345,241.884 182.345,245.551 178.5,248.5C 148.747,253.046 121.08,263.212 95.5,279C 94.7476,279.671 94.4142,280.504 94.5,281.5C 90.6654,279.75 86.9988,277.75 83.5,275.5C 113.515,255.94 146.182,243.274 181.5,237.5 Z"/></g>
<g><path style="opacity:0.983" fill="#dd1366" d="M 178.5,248.5 C 178.047,249.458 177.381,250.292 176.5,251C 168.113,255.525 159.779,260.025 151.5,264.5C 143.941,266.297 136.608,268.797 129.5,272C 119.992,276.255 110.659,280.755 101.5,285.5C 98.6689,284.921 96.3356,283.588 94.5,281.5C 94.4142,280.504 94.7476,279.671 95.5,279C 121.08,263.212 148.747,253.046 178.5,248.5 Z"/></g>
<g><path style="opacity:0.982" fill="#dd1366" d="M 341.5,280.5 C 338.001,282.75 334.335,284.75 330.5,286.5C 315.639,276.345 299.639,269.345 282.5,265.5C 272.969,260.908 263.969,255.574 255.5,249.5C 256.097,248.861 256.93,248.528 258,248.5C 287.775,254.313 315.609,264.979 341.5,280.5 Z"/></g>
<g><path style="opacity:0.959" fill="#e21364" d="M 330.5,286.5 C 327.863,288.427 324.863,288.927 321.5,288C 308.11,280.978 295.11,273.478 282.5,265.5C 299.639,269.345 315.639,276.345 330.5,286.5 Z"/></g>
<g><path style="opacity:0.956" fill="#e21364" d="M 151.5,264.5 C 137.854,273.909 123.354,281.909 108,288.5C 105.325,288.343 103.159,287.343 101.5,285.5C 110.659,280.755 119.992,276.255 129.5,272C 136.608,268.797 143.941,266.297 151.5,264.5 Z"/></g>
<g><path style="opacity:0.946" fill="#b91a70" d="M 26.5,270.5 C 21.5,275.167 16.5,279.833 11.5,284.5C 10.3315,278.339 12.3315,273.506 17.5,270C 20.6965,269.195 23.6965,269.362 26.5,270.5 Z"/></g>
<g><path style="opacity:0.946" fill="#b91a70" d="M 421.5,287.5 C 418.224,281.7 413.89,276.533 408.5,272C 407.207,271.51 405.873,271.343 404.5,271.5C 409.113,268.814 413.78,268.981 418.5,272C 421.198,276.773 422.198,281.939 421.5,287.5 Z"/></g>
<g><path style="opacity:0.974" fill="#be196f" d="M 26.5,270.5 C 29.3311,271.079 31.6644,272.412 33.5,274.5C 33.6107,275.117 33.944,275.617 34.5,276C 27.3333,283.167 20.1667,290.333 13,297.5C 12.51,298.793 12.3433,300.127 12.5,301.5C 12.1667,301.5 11.8333,301.5 11.5,301.5C 11.5,295.833 11.5,290.167 11.5,284.5C 16.5,279.833 21.5,275.167 26.5,270.5 Z"/></g>
<g><path style="opacity:0.988" fill="#be196f" d="M 404.5,271.5 C 405.873,271.343 407.207,271.51 408.5,272C 413.89,276.533 418.224,281.7 421.5,287.5C 421.5,291.167 421.5,294.833 421.5,298.5C 421.167,298.5 420.833,298.5 420.5,298.5C 413.457,290.128 406.123,282.128 398.5,274.5C 400.517,273.471 402.517,272.471 404.5,271.5 Z"/></g>
<g><path style="opacity:0.993" fill="#c2186d" d="M 33.5,274.5 C 35.674,274.75 37.3406,275.75 38.5,277.5C 29.5051,285.662 21.0051,294.328 13,303.5C 12.5357,302.906 12.369,302.239 12.5,301.5C 12.3433,300.127 12.51,298.793 13,297.5C 20.1667,290.333 27.3333,283.167 34.5,276C 33.944,275.617 33.6107,275.117 33.5,274.5 Z"/></g>
<g><path style="opacity:0.99" fill="#c2186d" d="M 398.5,274.5 C 406.123,282.128 413.457,290.128 420.5,298.5C 420.66,300.199 420.494,301.866 420,303.5C 411.995,294.328 403.495,285.662 394.5,277.5C 395.795,276.512 397.128,275.512 398.5,274.5 Z"/></g>
<g><path style="opacity:0.981" fill="#ec1361" d="M 204.5,279.5 C 191.027,280.746 177.694,283.079 164.5,286.5C 163.584,286.457 162.917,286.124 162.5,285.5C 171.473,280.345 180.473,275.178 189.5,270C 198.201,267.67 203.201,270.837 204.5,279.5 Z"/></g>
<g><path style="opacity:0.971" fill="#ec1360" d="M 274.5,288.5 C 259.518,283.78 244.185,280.78 228.5,279.5C 230.204,271.307 235.204,268.141 243.5,270C 254.228,275.689 264.561,281.856 274.5,288.5 Z"/></g>
<g><path style="opacity:0.97" fill="#c5176d" d="M 38.5,277.5 C 40.8185,277.992 42.8185,278.992 44.5,280.5C 32.8363,289.997 22.3363,300.664 13,312.5C 12.6174,311.944 12.1174,311.611 11.5,311.5C 11.5,308.167 11.5,304.833 11.5,301.5C 11.8333,301.5 12.1667,301.5 12.5,301.5C 12.369,302.239 12.5357,302.906 13,303.5C 21.0051,294.328 29.5051,285.662 38.5,277.5 Z"/></g>
<g><path style="opacity:0.975" fill="#c5176d" d="M 394.5,277.5 C 403.495,285.662 411.995,294.328 420,303.5C 420.494,301.866 420.66,300.199 420.5,298.5C 420.833,298.5 421.167,298.5 421.5,298.5C 421.5,304.5 421.5,310.5 421.5,316.5C 420.783,314.047 419.616,311.713 418,309.5C 408.995,299.328 399.495,289.661 389.5,280.5C 390.659,278.75 392.326,277.75 394.5,277.5 Z"/></g>
<g><path style="opacity:0.978" fill="#cb176b" d="M 44.5,280.5 C 48.2009,282.012 51.5342,284.012 54.5,286.5C 38.0781,299.921 23.7447,315.254 11.5,332.5C 11.5,325.5 11.5,318.5 11.5,311.5C 12.1174,311.611 12.6174,311.944 13,312.5C 22.3363,300.664 32.8363,289.997 44.5,280.5 Z"/></g>
<g><path style="opacity:0.988" fill="#cb176b" d="M 389.5,280.5 C 399.495,289.661 408.995,299.328 418,309.5C 419.616,311.713 420.783,314.047 421.5,316.5C 421.5,322.167 421.5,327.833 421.5,333.5C 410.067,316.553 396.567,301.22 381,287.5C 380.536,286.906 380.369,286.239 380.5,285.5C 383.008,283.076 386.008,281.41 389.5,280.5 Z"/></g>
<g><path style="opacity:0.996" fill="#ed195e" d="M 204.5,279.5 C 204.5,281.5 204.5,283.5 204.5,285.5C 180.308,286.965 157.308,292.965 135.5,303.5C 134.817,303.137 134.15,302.804 133.5,302.5C 142.967,296.596 152.633,290.929 162.5,285.5C 162.917,286.124 163.584,286.457 164.5,286.5C 177.694,283.079 191.027,280.746 204.5,279.5 Z"/></g>
<g><path style="opacity:0.997" fill="#ed195e" d="M 228.5,279.5 C 244.185,280.78 259.518,283.78 274.5,288.5C 283.501,292.998 292.168,297.998 300.5,303.5C 300.565,303.938 300.399,304.272 300,304.5C 277.467,293.408 253.633,287.075 228.5,285.5C 228.5,283.5 228.5,281.5 228.5,279.5 Z"/></g>
<g><path style="opacity:0.997" fill="#ed1d5c" d="M 204.5,285.5 C 204.5,287.167 204.5,288.833 204.5,290.5C 173.711,292.098 145.377,301.098 119.5,317.5C 119.826,314.689 120.659,312.022 122,309.5C 125.719,306.941 129.552,304.608 133.5,302.5C 134.15,302.804 134.817,303.137 135.5,303.5C 157.308,292.965 180.308,286.965 204.5,285.5 Z"/></g>
<g><path style="opacity:0.991" fill="#ed1d5c" d="M 228.5,285.5 C 253.633,287.075 277.467,293.408 300,304.5C 300.399,304.272 300.565,303.938 300.5,303.5C 307.779,304.958 312.112,309.292 313.5,316.5C 287.3,300.99 258.967,292.323 228.5,290.5C 228.5,288.833 228.5,287.167 228.5,285.5 Z"/></g>
<g><path style="opacity:0.978" fill="#d11569" d="M 54.5,286.5 C 57.395,287.399 60.0616,288.733 62.5,290.5C 43.6544,307.509 27.1544,326.509 13,347.5C 12.8019,349.382 12.3019,351.048 11.5,352.5C 11.5,345.833 11.5,339.167 11.5,332.5C 23.7447,315.254 38.0781,299.921 54.5,286.5 Z"/></g>
<g><path style="opacity:0.99" fill="#d11669" d="M 380.5,285.5 C 380.369,286.239 380.536,286.906 381,287.5C 396.567,301.22 410.067,316.553 421.5,333.5C 421.5,338.833 421.5,344.167 421.5,349.5C 407.777,327.46 390.777,308.127 370.5,291.5C 373.494,289 376.827,287 380.5,285.5 Z"/></g>
<g><path style="opacity:0.989" fill="#d71468" d="M 62.5,290.5 C 65.7089,292.265 68.7089,294.265 71.5,296.5C 47.9807,314.337 29.6474,336.337 16.5,362.5C 13.2586,360.017 11.5919,356.684 11.5,352.5C 12.3019,351.048 12.8019,349.382 13,347.5C 27.1544,326.509 43.6544,307.509 62.5,290.5 Z"/></g>
<g><path style="opacity:0.992" fill="#ee225a" d="M 204.5,290.5 C 204.5,292.5 204.5,294.5 204.5,296.5C 174.237,298.727 146.237,307.727 120.5,323.5C 120.167,323.5 119.833,323.5 119.5,323.5C 119.5,321.5 119.5,319.5 119.5,317.5C 145.377,301.098 173.711,292.098 204.5,290.5 Z"/></g>
<g><path style="opacity:0.989" fill="#ee225a" d="M 228.5,290.5 C 258.967,292.323 287.3,300.99 313.5,316.5C 313.5,319.167 313.5,321.833 313.5,324.5C 287.607,307.98 259.274,298.647 228.5,296.5C 228.5,294.5 228.5,292.5 228.5,290.5 Z"/></g>
<g><path style="opacity:0.989" fill="#d71468" d="M 370.5,291.5 C 390.777,308.127 407.777,327.46 421.5,349.5C 421.664,352.187 421.497,354.854 421,357.5C 420.34,359.324 419.173,360.657 417.5,361.5C 402.822,336.485 384.488,314.485 362.5,295.5C 364.938,293.733 367.605,292.399 370.5,291.5 Z"/></g>
<g><path style="opacity:0.994" fill="#dd1366" d="M 71.5,296.5 C 74.9922,297.41 77.9922,299.076 80.5,301.5C 57.5158,318.645 39.0158,339.645 25,364.5C 24.3292,365.252 23.4959,365.586 22.5,365.5C 20.5168,364.529 18.5168,363.529 16.5,362.5C 29.6474,336.337 47.9807,314.337 71.5,296.5 Z"/></g>
<g><path style="opacity:1" fill="#ef2758" d="M 204.5,296.5 C 204.5,297.833 204.5,299.167 204.5,300.5C 174.24,302.753 146.407,312.087 121,328.5C 120.506,326.866 120.34,325.199 120.5,323.5C 146.237,307.727 174.237,298.727 204.5,296.5 Z"/></g>
<g><path style="opacity:0.997" fill="#ee2758" d="M 228.5,296.5 C 259.274,298.647 287.607,307.98 313.5,324.5C 313.5,324.833 313.5,325.167 313.5,325.5C 312.732,326.263 312.232,327.263 312,328.5C 287.623,312.818 260.956,303.484 232,300.5C 230.566,300.138 229.399,299.472 228.5,298.5C 228.5,297.833 228.5,297.167 228.5,296.5 Z"/></g>
<g><path style="opacity:0.994" fill="#dd1366" d="M 362.5,295.5 C 384.488,314.485 402.822,336.485 417.5,361.5C 415.206,363.653 412.54,365.32 409.5,366.5C 394.843,341.17 376.177,319.17 353.5,300.5C 356.661,299.087 359.661,297.42 362.5,295.5 Z"/></g>
<g><path style="opacity:0.978" fill="#ef2a56" d="M 228.5,298.5 C 229.399,299.472 230.566,300.138 232,300.5C 260.956,303.484 287.623,312.818 312,328.5C 312.232,327.263 312.732,326.263 313.5,325.5C 313.5,327.5 313.5,329.5 313.5,331.5C 289.09,316.028 262.424,306.695 233.5,303.5C 231.742,303.592 230.076,303.925 228.5,304.5C 228.5,302.5 228.5,300.5 228.5,298.5 Z"/></g>
<g><path style="opacity:0.973" fill="#ef2a56" d="M 204.5,300.5 C 204.5,301.5 204.5,302.5 204.5,303.5C 173.445,305.407 145.111,315.073 119.5,332.5C 119.5,329.5 119.5,326.5 119.5,323.5C 119.833,323.5 120.167,323.5 120.5,323.5C 120.34,325.199 120.506,326.866 121,328.5C 146.407,312.087 174.24,302.753 204.5,300.5 Z"/></g>
<g><path style="opacity:0.996" fill="#e21364" d="M 80.5,301.5 C 82.674,301.75 84.3406,302.75 85.5,304.5C 63.1811,323.143 44.5144,344.809 29.5,369.5C 26.9959,368.416 24.6626,367.083 22.5,365.5C 23.4959,365.586 24.3292,365.252 25,364.5C 39.0158,339.645 57.5158,318.645 80.5,301.5 Z"/></g>
<g><path style="opacity:0.995" fill="#e21264" d="M 353.5,300.5 C 376.177,319.17 394.843,341.17 409.5,366.5C 407.999,367.752 406.332,368.752 404.5,369.5C 389.004,344.901 370.004,323.234 347.5,304.5C 349.463,303.18 351.463,301.846 353.5,300.5 Z"/></g>
<g><path style="opacity:0.988" fill="#ef2e55" d="M 204.5,303.5 C 204.5,305.5 204.5,307.5 204.5,309.5C 176.017,312.05 149.683,320.883 125.5,336C 122.558,337.436 120.558,339.603 119.5,342.5C 119.5,339.167 119.5,335.833 119.5,332.5C 145.111,315.073 173.445,305.407 204.5,303.5 Z"/></g>
<g><path style="opacity:0.989" fill="#ef2e55" d="M 313.5,331.5 C 313.5,334.167 313.5,336.833 313.5,339.5C 287.782,322.37 259.448,312.37 228.5,309.5C 228.5,307.833 228.5,306.167 228.5,304.5C 230.076,303.925 231.742,303.592 233.5,303.5C 262.424,306.695 289.09,316.028 313.5,331.5 Z"/></g>
<g><path style="opacity:0.995" fill="#e61263" d="M 85.5,304.5 C 88.3311,305.079 90.6644,306.412 92.5,308.5C 91.5041,308.586 90.6708,308.252 90,307.5C 69.459,323.702 52.1257,342.702 38,364.5C 36.5186,367.11 35.3519,369.777 34.5,372.5C 32.5659,371.89 30.8993,370.89 29.5,369.5C 44.5144,344.809 63.1811,323.143 85.5,304.5 Z"/></g>
<g><path style="opacity:0.999" fill="#e61264" d="M 347.5,304.5 C 370.004,323.234 389.004,344.901 404.5,369.5C 402.668,370.248 401.001,371.248 399.5,372.5C 385.139,346.803 366.139,325.137 342.5,307.5C 343.965,306.263 345.632,305.263 347.5,304.5 Z"/></g>
<g><path style="opacity:0.995" fill="#ea1162" d="M 92.5,308.5 C 94.942,310.121 96.2753,312.454 96.5,315.5C 85.2698,324.224 74.7698,333.891 65,344.5C 56.9013,355.057 49.068,365.723 41.5,376.5C 38.9959,375.416 36.6626,374.083 34.5,372.5C 35.3519,369.777 36.5186,367.11 38,364.5C 52.1257,342.702 69.459,323.702 90,307.5C 90.6708,308.252 91.5041,308.586 92.5,308.5 Z"/></g>
<g><path style="opacity:0.993" fill="#ea1162" d="M 342.5,307.5 C 366.139,325.137 385.139,346.803 399.5,372.5C 396.45,374.692 393.117,376.358 389.5,377.5C 389.611,376.883 389.944,376.383 390.5,376C 376.918,352.749 359.418,332.915 338,316.5C 337.517,315.552 337.351,314.552 337.5,313.5C 338.226,310.712 339.893,308.712 342.5,307.5 Z"/></g>
<g><path style="opacity:0.993" fill="#f03452" d="M 204.5,309.5 C 204.5,311.5 204.5,313.5 204.5,315.5C 173.001,318.096 144.668,328.762 119.5,347.5C 119.5,345.833 119.5,344.167 119.5,342.5C 120.558,339.603 122.558,337.436 125.5,336C 149.683,320.883 176.017,312.05 204.5,309.5 Z"/></g>
<g><path style="opacity:0.992" fill="#f03452" d="M 228.5,309.5 C 259.448,312.37 287.782,322.37 313.5,339.5C 313.5,341.167 313.5,342.833 313.5,344.5C 312.778,344.918 312.278,345.584 312,346.5C 287.217,328.202 259.384,317.869 228.5,315.5C 228.5,313.5 228.5,311.5 228.5,309.5 Z"/></g>
<g><path style="opacity:0.995" fill="#f03750" d="M 204.5,315.5 C 204.5,316.167 204.5,316.833 204.5,317.5C 181.856,319.103 160.523,325.27 140.5,336C 133.596,340.42 126.596,344.587 119.5,348.5C 119.5,348.167 119.5,347.833 119.5,347.5C 144.668,328.762 173.001,318.096 204.5,315.5 Z"/></g>
<g><path style="opacity:0.973" fill="#f03751" d="M 228.5,315.5 C 259.384,317.869 287.217,328.202 312,346.5C 312.278,345.584 312.778,344.918 313.5,344.5C 313.5,346.5 313.5,348.5 313.5,350.5C 288.783,330.37 260.45,319.704 228.5,318.5C 228.5,317.5 228.5,316.5 228.5,315.5 Z"/></g>
<g><path style="opacity:0.985" fill="#ec1460" d="M 337.5,313.5 C 337.351,314.552 337.517,315.552 338,316.5C 359.418,332.915 376.918,352.749 390.5,376C 389.944,376.383 389.611,376.883 389.5,377.5C 389.027,378.906 388.027,379.573 386.5,379.5C 374.627,356.775 358.461,337.442 338,321.5C 337.617,322.056 337.117,322.389 336.5,322.5C 336.19,319.287 336.523,316.287 337.5,313.5 Z"/></g>
<g><path style="opacity:0.996" fill="#ed1460" d="M 96.5,315.5 C 96.5,317.167 96.5,318.833 96.5,320.5C 76.6348,336.198 60.1348,354.865 47,376.5C 46.805,377.819 46.9717,379.153 47.5,380.5C 45.4632,379.154 43.4632,377.82 41.5,376.5C 49.068,365.723 56.9013,355.057 65,344.5C 74.7698,333.891 85.2698,324.224 96.5,315.5 Z"/></g>
<g><path style="opacity:0.989" fill="#f03b4f" d="M 204.5,317.5 C 204.5,319.5 204.5,321.5 204.5,323.5C 172.848,326.836 144.515,338.169 119.5,357.5C 119.5,354.5 119.5,351.5 119.5,348.5C 126.596,344.587 133.596,340.42 140.5,336C 160.523,325.27 181.856,319.103 204.5,317.5 Z"/></g>
<g><path style="opacity:0.991" fill="#f03b4f" d="M 313.5,350.5 C 313.5,352.833 313.5,355.167 313.5,357.5C 288.597,337.968 260.263,326.635 228.5,323.5C 228.5,321.833 228.5,320.167 228.5,318.5C 260.45,319.704 288.783,330.37 313.5,350.5 Z"/></g>
<g><path style="opacity:0.986" fill="#f1414c" d="M 204.5,323.5 C 204.5,325.833 204.5,328.167 204.5,330.5C 172.815,333.267 144.981,344.934 121,365.5C 120.51,366.793 120.343,368.127 120.5,369.5C 120.167,369.5 119.833,369.5 119.5,369.5C 119.5,365.5 119.5,361.5 119.5,357.5C 144.515,338.169 172.848,326.836 204.5,323.5 Z"/></g>
<g><path style="opacity:0.989" fill="#f1414c" d="M 228.5,323.5 C 260.263,326.635 288.597,337.968 313.5,357.5C 313.5,360.5 313.5,363.5 313.5,366.5C 289.557,345.396 261.557,333.396 229.5,330.5C 229.167,330.5 228.833,330.5 228.5,330.5C 228.5,328.167 228.5,325.833 228.5,323.5 Z"/></g>
<g><path style="opacity:1" fill="#ed195e" d="M 96.5,320.5 C 96.5,321.833 96.5,323.167 96.5,324.5C 95.71,325.609 95.21,326.942 95,328.5C 76.9758,343.674 62.1425,361.34 50.5,381.5C 49.391,381.443 48.391,381.11 47.5,380.5C 46.9717,379.153 46.805,377.819 47,376.5C 60.1348,354.865 76.6348,336.198 96.5,320.5 Z"/></g>
<g><path style="opacity:0.982" fill="#ee1d5c" d="M 96.5,324.5 C 96.5,328.167 96.5,331.833 96.5,335.5C 95.8826,335.389 95.3826,335.056 95,334.5C 80.195,347.831 67.5283,362.831 57,379.5C 55.9914,381.025 55.4914,382.692 55.5,384.5C 53.5659,383.89 51.8993,382.89 50.5,381.5C 62.1425,361.34 76.9758,343.674 95,328.5C 95.21,326.942 95.71,325.609 96.5,324.5 Z"/></g>
<g><path style="opacity:1" fill="#ed195e" d="M 386.5,379.5 C 385.71,380.401 384.71,381.068 383.5,381.5C 371.164,361.644 355.997,343.977 338,328.5C 337.79,326.942 337.29,325.609 336.5,324.5C 336.5,323.833 336.5,323.167 336.5,322.5C 337.117,322.389 337.617,322.056 338,321.5C 358.461,337.442 374.627,356.775 386.5,379.5 Z"/></g>
<g><path style="opacity:0.997" fill="#ed1d5c" d="M 336.5,324.5 C 337.29,325.609 337.79,326.942 338,328.5C 355.997,343.977 371.164,361.644 383.5,381.5C 381.999,382.752 380.332,383.752 378.5,384.5C 367.574,364.988 353.574,347.988 336.5,333.5C 336.5,330.5 336.5,327.5 336.5,324.5 Z"/></g>
<g><path style="opacity:1" fill="#f2454b" d="M 204.5,330.5 C 204.5,331.5 204.5,332.5 204.5,333.5C 172.393,336.228 144.393,348.228 120.5,369.5C 120.343,368.127 120.51,366.793 121,365.5C 144.981,344.934 172.815,333.267 204.5,330.5 Z"/></g>
<g><path style="opacity:0.987" fill="#f24849" d="M 228.5,330.5 C 228.833,330.5 229.167,330.5 229.5,330.5C 229.5,331.5 229.5,332.5 229.5,333.5C 261.527,336.389 289.527,348.389 313.5,369.5C 313.5,371.167 313.5,372.833 313.5,374.5C 289.675,353.343 261.842,340.676 230,336.5C 229.617,337.056 229.117,337.389 228.5,337.5C 228.5,335.167 228.5,332.833 228.5,330.5 Z"/></g>
<g><path style="opacity:0.992" fill="#f1454b" d="M 229.5,330.5 C 261.557,333.396 289.557,345.396 313.5,366.5C 313.5,367.5 313.5,368.5 313.5,369.5C 289.527,348.389 261.527,336.389 229.5,333.5C 229.5,332.5 229.5,331.5 229.5,330.5 Z"/></g>
<g><path style="opacity:0.988" fill="#f24849" d="M 204.5,333.5 C 204.5,334.5 204.5,335.5 204.5,336.5C 171.698,340.072 143.364,353.072 119.5,375.5C 119.5,373.5 119.5,371.5 119.5,369.5C 119.833,369.5 120.167,369.5 120.5,369.5C 144.393,348.228 172.393,336.228 204.5,333.5 Z"/></g>
<g><path style="opacity:0.989" fill="#ee225a" d="M 96.5,335.5 C 96.5,337.833 96.5,340.167 96.5,342.5C 83.3162,354.18 72.1496,367.514 63,382.5C 61.872,384.345 61.372,386.345 61.5,388.5C 59.4632,387.154 57.4632,385.82 55.5,384.5C 55.4914,382.692 55.9914,381.025 57,379.5C 67.5283,362.831 80.195,347.831 95,334.5C 95.3826,335.056 95.8826,335.389 96.5,335.5 Z"/></g>
<g><path style="opacity:0.98" fill="#ee225a" d="M 336.5,333.5 C 353.574,347.988 367.574,364.988 378.5,384.5C 376.483,385.529 374.483,386.529 372.5,387.5C 363.909,370.721 352.409,356.054 338,343.5C 337.722,344.416 337.222,345.082 336.5,345.5C 336.5,341.5 336.5,337.5 336.5,333.5 Z"/></g>
<g><path style="opacity:0.992" fill="#f34e47" d="M 204.5,336.5 C 204.5,339.167 204.5,341.833 204.5,344.5C 171.879,348.062 144.046,361.396 121,384.5C 120.617,383.944 120.117,383.611 119.5,383.5C 119.5,380.833 119.5,378.167 119.5,375.5C 143.364,353.072 171.698,340.072 204.5,336.5 Z"/></g>
<g><path style="opacity:0.986" fill="#f34e47" d="M 313.5,374.5 C 313.5,378.833 313.5,383.167 313.5,387.5C 298.38,369.574 279.38,357.074 256.5,350C 247.324,347.332 237.991,345.498 228.5,344.5C 228.5,342.167 228.5,339.833 228.5,337.5C 229.117,337.389 229.617,337.056 230,336.5C 261.842,340.676 289.675,353.343 313.5,374.5 Z"/></g>
<g><path style="opacity:0.991" fill="#ef2857" d="M 96.5,342.5 C 96.5,346.167 96.5,349.833 96.5,353.5C 95.8826,353.389 95.3826,353.056 95,352.5C 83.4543,363.97 73.621,376.637 65.5,390.5C 64.1667,389.833 62.8333,389.167 61.5,388.5C 61.372,386.345 61.872,384.345 63,382.5C 72.1496,367.514 83.3162,354.18 96.5,342.5 Z"/></g>
<g><path style="opacity:0.991" fill="#ef2857" d="M 372.5,387.5 C 371.035,388.737 369.368,389.737 367.5,390.5C 359.61,376.758 349.943,364.258 338.5,353C 337.906,352.536 337.239,352.369 336.5,352.5C 336.5,350.167 336.5,347.833 336.5,345.5C 337.222,345.082 337.722,344.416 338,343.5C 352.409,356.054 363.909,370.721 372.5,387.5 Z"/></g>
<g><path style="opacity:1" fill="#f35345" d="M 204.5,344.5 C 204.5,345.833 204.5,347.167 204.5,348.5C 176.626,350.613 152.293,360.779 131.5,379C 127.253,382.742 123.586,386.908 120.5,391.5C 119.527,389.052 119.194,386.385 119.5,383.5C 120.117,383.611 120.617,383.944 121,384.5C 144.046,361.396 171.879,348.062 204.5,344.5 Z"/></g>
<g><path style="opacity:0.99" fill="#f35345" d="M 228.5,344.5 C 237.991,345.498 247.324,347.332 256.5,350C 279.38,357.074 298.38,369.574 313.5,387.5C 313.5,388.5 313.5,389.5 313.5,390.5C 290.702,365.601 262.368,351.601 228.5,348.5C 228.5,347.167 228.5,345.833 228.5,344.5 Z"/></g>
<g><path style="opacity:1" fill="#f35643" d="M 204.5,348.5 C 204.5,349.5 204.5,350.5 204.5,351.5C 182.547,353.314 162.547,360.481 144.5,373C 136.314,379.692 128.314,386.525 120.5,393.5C 120.5,392.833 120.5,392.167 120.5,391.5C 123.586,386.908 127.253,382.742 131.5,379C 152.293,360.779 176.626,350.613 204.5,348.5 Z"/></g>
<g><path style="opacity:0.999" fill="#f35643" d="M 228.5,348.5 C 262.368,351.601 290.702,365.601 313.5,390.5C 313.34,392.153 312.674,393.486 311.5,394.5C 289.904,368.535 262.238,354.535 228.5,352.5C 228.5,351.167 228.5,349.833 228.5,348.5 Z"/></g>
<g><path style="opacity:0.996" fill="#f45a41" d="M 204.5,351.5 C 204.795,353.735 204.461,355.735 203.5,357.5C 172.045,361.385 146.378,375.385 126.5,399.5C 123.522,398.522 121.522,396.522 120.5,393.5C 128.314,386.525 136.314,379.692 144.5,373C 162.547,360.481 182.547,353.314 204.5,351.5 Z"/></g>
<g><path style="opacity:0.998" fill="#f35a42" d="M 311.5,394.5 C 311.573,396.027 310.906,397.027 309.5,397.5C 308.504,397.414 307.671,397.748 307,398.5C 286.319,375.241 260.485,361.574 229.5,357.5C 228.549,356.081 228.216,354.415 228.5,352.5C 262.238,354.535 289.904,368.535 311.5,394.5 Z"/></g>
<g><path style="opacity:0.982" fill="#ef2e55" d="M 96.5,353.5 C 96.5,355.833 96.5,358.167 96.5,360.5C 86.9523,370.603 78.619,381.603 71.5,393.5C 69.1815,393.008 67.1815,392.008 65.5,390.5C 73.621,376.637 83.4543,363.97 95,352.5C 95.3826,353.056 95.8826,353.389 96.5,353.5 Z"/></g>
<g><path style="opacity:0.977" fill="#ef2e55" d="M 336.5,352.5 C 337.239,352.369 337.906,352.536 338.5,353C 349.943,364.258 359.61,376.758 367.5,390.5C 366.035,391.737 364.368,392.737 362.5,393.5C 358.109,387.741 353.943,381.741 350,375.5C 345.634,370.305 341.134,365.305 336.5,360.5C 336.5,357.833 336.5,355.167 336.5,352.5 Z"/></g>
<g><path style="opacity:0.987" fill="#f45f3f" d="M 203.5,357.5 C 202.113,361.208 199.446,363.541 195.5,364.5C 170.094,368.853 149.427,380.853 133.5,400.5C 131.05,400.702 128.717,400.369 126.5,399.5C 146.378,375.385 172.045,361.385 203.5,357.5 Z"/></g>
<g><path style="opacity:0.993" fill="#f45f3f" d="M 229.5,357.5 C 260.485,361.574 286.319,375.241 307,398.5C 307.671,397.748 308.504,397.414 309.5,397.5C 307.081,399.862 304.081,400.862 300.5,400.5C 288.893,386.762 274.559,376.595 257.5,370C 250.281,367.315 242.948,365.148 235.5,363.5C 232.478,362.478 230.478,360.478 229.5,357.5 Z"/></g>
<g><path style="opacity:0.97" fill="#f03452" d="M 96.5,360.5 C 96.5,363.5 96.5,366.5 96.5,369.5C 93.7845,371.902 91.2845,374.568 89,377.5C 84.5773,383.738 80.4106,390.072 76.5,396.5C 74.326,396.25 72.6594,395.25 71.5,393.5C 78.619,381.603 86.9523,370.603 96.5,360.5 Z"/></g>
<g><path style="opacity:0.98" fill="#f03452" d="M 336.5,360.5 C 341.134,365.305 345.634,370.305 350,375.5C 353.943,381.741 358.109,387.741 362.5,393.5C 360.819,395.008 358.819,396.008 356.5,396.5C 351.08,387.335 344.913,378.668 338,370.5C 337.802,368.618 337.302,366.952 336.5,365.5C 336.5,363.833 336.5,362.167 336.5,360.5 Z"/></g>
<g><path style="opacity:0.916" fill="#f4643d" d="M 235.5,363.5 C 242.948,365.148 250.281,367.315 257.5,370C 274.559,376.595 288.893,386.762 300.5,400.5C 278.574,388.563 256.908,376.23 235.5,363.5 Z"/></g>
<g><path style="opacity:0.92" fill="#f4643d" d="M 195.5,364.5 C 175.114,376.864 154.448,388.864 133.5,400.5C 149.427,380.853 170.094,368.853 195.5,364.5 Z"/></g>
<g><path style="opacity:0.951" fill="#f03a4f" d="M 336.5,365.5 C 337.302,366.952 337.802,368.618 338,370.5C 344.913,378.668 351.08,387.335 356.5,396.5C 354.102,398.974 351.102,400.308 347.5,400.5C 347.611,399.883 347.944,399.383 348.5,399C 344.588,392.65 340.588,386.483 336.5,380.5C 336.5,375.5 336.5,370.5 336.5,365.5 Z"/></g>
<g><path style="opacity:0.961" fill="#f03a4f" d="M 96.5,369.5 C 96.5,373.833 96.5,378.167 96.5,382.5C 91.9765,387.538 87.9765,393.038 84.5,399C 85.056,399.383 85.3893,399.883 85.5,400.5C 81.8976,400.308 78.8976,398.974 76.5,396.5C 80.4106,390.072 84.5773,383.738 89,377.5C 91.2845,374.568 93.7845,371.902 96.5,369.5 Z"/></g>
<g><path style="opacity:0.892" fill="#f1414d" d="M 336.5,380.5 C 340.588,386.483 344.588,392.65 348.5,399C 347.944,399.383 347.611,399.883 347.5,400.5C 343.486,400.44 340.319,398.773 338,395.5C 336.675,390.599 336.175,385.599 336.5,380.5 Z"/></g>
<g><path style="opacity:0.912" fill="#f1404c" d="M 96.5,382.5 C 97.763,389.016 96.0964,394.516 91.5,399C 89.6547,400.128 87.6547,400.628 85.5,400.5C 85.3893,399.883 85.056,399.383 84.5,399C 87.9765,393.038 91.9765,387.538 96.5,382.5 Z"/></g>
<g><path style="opacity:0.939" fill="#f67934" d="M 239.5,393.5 C 224.828,389.539 210.162,389.539 195.5,393.5C 194.893,393.376 194.56,393.043 194.5,392.5C 201.32,387.756 208.654,384.09 216.5,381.5C 224.881,384.19 232.547,388.19 239.5,393.5 Z"/></g>
<g><path style="opacity:0.966" fill="#f77e32" d="M 239.5,393.5 C 252.502,400.332 265.168,407.665 277.5,415.5C 282.303,420.63 286.303,426.297 289.5,432.5C 289.573,434.027 288.906,435.027 287.5,435.5C 264.891,401.712 233.558,389.212 193.5,398C 172.478,404.542 156.811,417.376 146.5,436.5C 144.178,435.198 142.845,433.198 142.5,430.5C 143.117,430.611 143.617,430.944 144,431.5C 147.277,425.73 151.11,420.397 155.5,415.5C 168.3,407.596 181.3,399.929 194.5,392.5C 194.56,393.043 194.893,393.376 195.5,393.5C 210.162,389.539 224.828,389.539 239.5,393.5 Z"/></g>
<g><path style="opacity:0.996" fill="#f78130" d="M 287.5,435.5 C 286.833,436.833 285.833,437.833 284.5,438.5C 264.978,406.747 236.645,393.913 199.5,400C 176.764,405.268 160.097,418.101 149.5,438.5C 147.973,438.573 146.973,437.906 146.5,436.5C 156.811,417.376 172.478,404.542 193.5,398C 233.558,389.212 264.891,401.712 287.5,435.5 Z"/></g>
<g><path style="opacity:0.996" fill="#f8862e" d="M 284.5,438.5 C 282.819,440.008 280.819,441.008 278.5,441.5C 264.756,417.947 244.089,405.614 216.5,404.5C 188.894,405.621 168.228,417.954 154.5,441.5C 152.326,441.25 150.659,440.25 149.5,438.5C 160.097,418.101 176.764,405.268 199.5,400C 236.645,393.913 264.978,406.747 284.5,438.5 Z"/></g>
<g><path style="opacity:0.997" fill="#f98b2c" d="M 278.5,441.5 C 277.564,442.974 276.23,443.974 274.5,444.5C 261.813,422.205 242.48,410.538 216.5,409.5C 190.513,410.549 171.179,422.216 158.5,444.5C 157.128,443.488 155.795,442.488 154.5,441.5C 168.228,417.954 188.894,405.621 216.5,404.5C 244.089,405.614 264.756,417.947 278.5,441.5 Z"/></g>
<g><path style="opacity:0.996" fill="#f98e2b" d="M 274.5,444.5 C 274.167,444.5 273.833,444.5 273.5,444.5C 256.76,417.974 232.76,407.474 201.5,413C 183.047,417.627 169.047,428.127 159.5,444.5C 159.167,444.5 158.833,444.5 158.5,444.5C 171.179,422.216 190.513,410.549 216.5,409.5C 242.48,410.538 261.813,422.205 274.5,444.5 Z"/></g>
<g><path style="opacity:0.996" fill="#f8902a" d="M 273.5,444.5 C 272.71,445.401 271.71,446.068 270.5,446.5C 259.188,425.798 241.188,415.131 216.5,414.5C 192.321,414.917 174.321,425.583 162.5,446.5C 161.29,446.068 160.29,445.401 159.5,444.5C 169.047,428.127 183.047,417.627 201.5,413C 232.76,407.474 256.76,417.974 273.5,444.5 Z"/></g>
<g><path style="opacity:0.999" fill="#fa9329" d="M 270.5,446.5 C 269.71,447.401 268.71,448.068 267.5,448.5C 252.086,423.135 229.753,413.635 200.5,420C 193.276,422.279 186.609,425.612 180.5,430C 174.513,435.476 169.179,441.309 164.5,447.5C 163.833,447.167 163.167,446.833 162.5,446.5C 174.321,425.583 192.321,414.917 216.5,414.5C 241.188,415.131 259.188,425.798 270.5,446.5 Z"/></g>
<g><path style="opacity:0.884" fill="#f67a33" d="M 155.5,415.5 C 151.11,420.397 147.277,425.73 144,431.5C 143.617,430.944 143.117,430.611 142.5,430.5C 142.421,427.729 142.921,425.063 144,422.5C 147.473,419.516 151.306,417.183 155.5,415.5 Z"/></g>
<g><path style="opacity:0.84" fill="#f67a33" d="M 277.5,415.5 C 281.957,416.787 285.79,419.12 289,422.5C 290.684,425.894 290.851,429.228 289.5,432.5C 286.303,426.297 282.303,420.63 277.5,415.5 Z"/></g>
<g><path style="opacity:0.994" fill="#fa9826" d="M 267.5,448.5 C 265.167,449.833 262.833,451.167 260.5,452.5C 260.736,449.774 259.903,447.441 258,445.5C 239.559,424.116 217.392,419.283 191.5,431C 183.289,436.377 176.622,443.21 171.5,451.5C 168.996,450.416 166.663,449.083 164.5,447.5C 169.179,441.309 174.513,435.476 180.5,430C 186.609,425.612 193.276,422.279 200.5,420C 229.753,413.635 252.086,423.135 267.5,448.5 Z"/></g>
<g><path style="opacity:0.994" fill="#fa9f24" d="M 260.5,452.5 C 259.167,453.167 257.833,453.833 256.5,454.5C 251.63,448.342 245.963,442.842 239.5,438C 213.7,426.114 193.034,431.947 177.5,455.5C 175.463,454.154 173.463,452.82 171.5,451.5C 176.622,443.21 183.289,436.377 191.5,431C 217.392,419.283 239.559,424.116 258,445.5C 259.903,447.441 260.736,449.774 260.5,452.5 Z"/></g>
<g><path style="opacity:0.991" fill="#fba521" d="M 256.5,454.5 C 254.337,456.083 252.004,457.416 249.5,458.5C 239.488,441.669 224.821,435.503 205.5,440C 202.382,441.059 199.382,442.392 196.5,444C 191.257,448.08 186.59,452.58 182.5,457.5C 180.716,457.107 179.05,456.441 177.5,455.5C 193.034,431.947 213.7,426.114 239.5,438C 245.963,442.842 251.63,448.342 256.5,454.5 Z"/></g>
<g><path style="opacity:0.988" fill="#fbab1e" d="M 249.5,458.5 C 248.035,459.737 246.368,460.737 244.5,461.5C 234.258,445.698 220.258,441.198 202.5,448C 196.595,451.07 192.262,455.57 189.5,461.5C 186.669,460.921 184.336,459.588 182.5,457.5C 186.59,452.58 191.257,448.08 196.5,444C 199.382,442.392 202.382,441.059 205.5,440C 224.821,435.503 239.488,441.669 249.5,458.5 Z"/></g>
<g><path style="opacity:0.987" fill="#fcb11b" d="M 244.5,461.5 C 242.365,463.071 240.032,464.404 237.5,465.5C 229.887,453.09 219.221,449.59 205.5,455C 201.202,457.459 198.202,460.959 196.5,465.5C 193.669,464.921 191.336,463.588 189.5,461.5C 192.262,455.57 196.595,451.07 202.5,448C 220.258,441.198 234.258,445.698 244.5,461.5 Z"/></g>
<g><path style="opacity:0.981" fill="#fcb819" d="M 237.5,465.5 C 235.819,467.008 233.819,468.008 231.5,468.5C 225.214,458.678 216.881,456.511 206.5,462C 204.235,463.758 202.568,465.925 201.5,468.5C 199.326,468.25 197.659,467.25 196.5,465.5C 198.202,460.959 201.202,457.459 205.5,455C 219.221,449.59 229.887,453.09 237.5,465.5 Z"/></g>
<g><path style="opacity:0.982" fill="#fdbe16" d="M 231.5,468.5 C 229.882,470.316 227.882,471.649 225.5,472.5C 224.624,467.639 221.624,465.306 216.5,465.5C 212.156,465.998 208.823,467.998 206.5,471.5C 204.326,471.25 202.659,470.25 201.5,468.5C 202.568,465.925 204.235,463.758 206.5,462C 216.881,456.511 225.214,458.678 231.5,468.5 Z"/></g>
<g><path style="opacity:0.967" fill="#fec413" d="M 225.5,472.5 C 218.941,477.743 212.608,477.409 206.5,471.5C 208.823,467.998 212.156,465.998 216.5,465.5C 221.624,465.306 224.624,467.639 225.5,472.5 Z"/></g>
</svg>
